<svg width="24" height="27" viewBox="0 0 24 27" fill="none" xmlns="http://www.w3.org/2000/svg">
<path d="M5.83999 0C2.75343 0 0.23999 2.8725 0.23999 6.4V20.48C0.23999 24.0075 2.75343 26.88 5.83999 26.88H18.16C21.2466 26.88 23.76 24.0075 23.76 20.48V6.4C23.76 2.8725 21.2466 0 18.16 0H5.83999ZM5.27999 7.68H18.72C18.8206 7.68 18.9169 7.6925 19.0066 7.725L13.5006 14.01C12.6716 14.9575 11.3219 14.9575 10.4928 14.01L4.99343 7.725C5.08312 7.6925 5.17937 7.68 5.27999 7.68ZM4.19936 8.6325L8.4103 13.44L4.19936 18.2475C4.17093 18.145 4.15999 18.035 4.15999 17.92V8.96C4.15999 8.845 4.17093 8.735 4.19936 8.6325ZM19.8006 8.6325C19.8291 8.735 19.84 8.845 19.84 8.96V17.92C19.84 18.035 19.8291 18.145 19.8006 18.2475L15.5853 13.44L19.8006 8.6325ZM9.19999 14.3425L9.69874 14.92C10.3309 15.6425 11.1666 16 11.9934 16C12.8291 16 13.6581 15.6425 14.2903 14.92L14.7934 14.3425L19.0044 19.155C18.9169 19.1875 18.8206 19.2 18.72 19.2H5.27999C5.17937 19.2 5.08312 19.1875 4.99343 19.155L9.19999 14.3425Z" fill="#27EADE"/>
</svg>
