<svg width="48" height="34" viewBox="0 0 48 34" fill="none" xmlns="http://www.w3.org/2000/svg">
<path d="M11.6964 0C5.49302 0 0.441467 3.63337 0.441467 8.09524V25.9048C0.441467 30.3666 5.49302 34 11.6964 34H36.4574C42.6608 34 47.7124 30.3666 47.7124 25.9048V8.09524C47.7124 3.63337 42.6608 0 36.4574 0H11.6964ZM10.5709 9.71429H37.5829C37.7851 9.71429 37.9786 9.7301 38.1588 9.77121L27.0929 17.721C25.4266 18.9195 22.714 18.9195 21.0477 17.721L9.99501 9.77121C10.1753 9.7301 10.3687 9.71429 10.5709 9.71429ZM8.39909 10.9191L16.8623 17L8.39909 23.0809C8.34193 22.9513 8.31995 22.8121 8.31995 22.6667V11.3333C8.31995 11.1879 8.34193 11.0487 8.39909 10.9191ZM39.7547 10.9191C39.8119 11.0487 39.8339 11.1879 39.8339 11.3333V22.6667C39.8339 22.8121 39.8119 22.9513 39.7547 23.0809L31.2827 17L39.7547 10.9191ZM18.4494 18.1416L19.4518 18.872C20.7224 19.7859 22.4019 20.2381 24.0637 20.2381C25.7432 20.2381 27.4094 19.7859 28.68 18.872L29.6912 18.1416L38.1544 24.2288C37.9786 24.2699 37.7851 24.2857 37.5829 24.2857H10.5709C10.3687 24.2857 10.1753 24.2699 9.99501 24.2288L18.4494 18.1416Z" fill="#E951E3"/>
</svg>
