<svg width="32" height="32" viewBox="0 0 32 32" fill="none" xmlns="http://www.w3.org/2000/svg">
<path d="M3.26148 7.63499C3.355 10.8457 3.44852 11.5003 3.88492 11.7809C4.85125 12.3731 5.50586 11.6562 5.69289 9.81703L5.84875 8.19608L8.96594 11.3445C12.0208 14.4305 12.6754 14.8357 13.4235 14.0876C14.1717 13.3395 13.7664 12.6849 10.6804 9.63L7.53204 6.51279L9.15298 6.35693C10.9921 6.1699 11.7091 5.51529 11.1168 4.54895C10.8363 4.11254 10.1816 4.01903 6.97094 3.92551L3.16797 3.83199L3.26148 7.63499Z" fill="#E951E3"/>
<path d="M20.4063 4.23723C19.9387 4.70481 19.9387 5.51529 20.4063 5.98287C20.6245 6.20107 21.4973 6.35693 22.3389 6.35693H23.9287L20.718 9.56765C17.5696 12.716 17.1956 13.3706 17.9125 14.0876C18.6606 14.8357 19.3153 14.4305 22.3701 11.3445L25.4873 8.19608L25.6432 9.81703C25.8302 11.6562 26.4848 12.3731 27.42 11.7809C27.8875 11.5003 27.981 10.8457 28.0746 7.63499L28.1681 3.86317H24.4586C22.0272 3.86317 20.6556 3.98786 20.4063 4.23723Z" fill="#E951E3"/>
<path d="M8.96594 21.3195L5.84875 24.4679L5.69289 22.847C5.50586 21.0078 4.85125 20.2909 3.91609 20.8831C3.44852 21.1637 3.355 21.8183 3.26148 25.029L3.16797 28.832L6.97094 28.7385C10.1816 28.645 10.8363 28.5515 11.1168 28.0839C11.7091 27.1487 10.9921 26.4941 9.15298 26.3071L7.53204 26.1512L10.6804 23.034C13.7664 19.9791 14.1717 19.3245 13.4235 18.5764C12.6754 17.8283 12.0208 18.2335 8.96594 21.3195Z" fill="#E951E3"/>
<path d="M17.9121 18.5764C17.164 19.3245 17.5693 19.9791 20.6553 23.034L23.8036 26.1512L22.1827 26.3071C20.3436 26.4941 19.6266 27.1487 20.2189 28.0839C20.4994 28.5515 21.154 28.645 24.3647 28.7385L28.1677 28.832L28.0742 25.029C27.9807 21.8183 27.8872 21.1637 27.4507 20.8831C26.4844 20.2909 25.8298 21.0078 25.6428 22.847L25.4869 24.4679L22.3697 21.3195C19.3149 18.2335 18.6603 17.8283 17.9121 18.5764Z" fill="#E951E3"/>
</svg>
