<svg width="20" height="23" viewBox="0 0 20 23" fill="none" xmlns="http://www.w3.org/2000/svg">
<g filter="url(#filter0_f_205_57)">
<path d="M7.17193 13.8047L14.381 10.7909C15.598 10.2822 15.6131 8.56345 14.4053 8.03342L7.25021 4.8935C6.26419 4.4608 5.15695 5.17714 5.1475 6.25388L5.09344 12.4075C5.08399 13.4843 6.17847 14.22 7.17193 13.8047Z" stroke="#27EADE"/>
</g>
<g filter="url(#filter1_f_205_57)">
<path d="M7.17193 13.8047L14.381 10.7909C15.598 10.2822 15.6131 8.56345 14.4053 8.03342L7.25021 4.8935C6.26419 4.4608 5.15695 5.17714 5.1475 6.25388L5.09344 12.4075C5.08399 13.4843 6.17847 14.22 7.17193 13.8047Z" stroke="#27EADE"/>
</g>
<g filter="url(#filter2_i_205_57)">
<path d="M7.17193 13.8047L14.381 10.7909C15.598 10.2822 15.6131 8.56345 14.4053 8.03342L7.25021 4.8935C6.26419 4.4608 5.15695 5.17714 5.1475 6.25388L5.09344 12.4075C5.08399 13.4843 6.17847 14.22 7.17193 13.8047Z" stroke="#27EADE"/>
</g>
<defs>
<filter id="filter0_f_205_57" x="0.593384" y="0.264893" width="19.2092" height="18.158" filterUnits="userSpaceOnUse" color-interpolation-filters="sRGB">
<feFlood flood-opacity="0" result="BackgroundImageFix"/>
<feBlend mode="normal" in="SourceGraphic" in2="BackgroundImageFix" result="shape"/>
<feGaussianBlur stdDeviation="2" result="effect1_foregroundBlur_205_57"/>
</filter>
<filter id="filter1_f_205_57" x="0.593384" y="0.264893" width="19.2092" height="18.158" filterUnits="userSpaceOnUse" color-interpolation-filters="sRGB">
<feFlood flood-opacity="0" result="BackgroundImageFix"/>
<feBlend mode="normal" in="SourceGraphic" in2="BackgroundImageFix" result="shape"/>
<feGaussianBlur stdDeviation="2" result="effect1_foregroundBlur_205_57"/>
</filter>
<filter id="filter2_i_205_57" x="4.59338" y="4.26489" width="11.2092" height="14.158" filterUnits="userSpaceOnUse" color-interpolation-filters="sRGB">
<feFlood flood-opacity="0" result="BackgroundImageFix"/>
<feBlend mode="normal" in="SourceGraphic" in2="BackgroundImageFix" result="shape"/>
<feColorMatrix in="SourceAlpha" type="matrix" values="0 0 0 0 0 0 0 0 0 0 0 0 0 0 0 0 0 0 127 0" result="hardAlpha"/>
<feOffset dy="4"/>
<feGaussianBlur stdDeviation="2"/>
<feComposite in2="hardAlpha" operator="arithmetic" k2="-1" k3="1"/>
<feColorMatrix type="matrix" values="0 0 0 0 0 0 0 0 0 0 0 0 0 0 0 0 0 0 0.25 0"/>
<feBlend mode="normal" in2="shape" result="effect1_innerShadow_205_57"/>
</filter>
</defs>
</svg>
