<svg width="26" height="26" viewBox="0 0 26 26" fill="none" xmlns="http://www.w3.org/2000/svg">
<path d="M8.92425 25.44C9.32829 25.2701 9.6087 24.8759 9.6087 24.4163V21.4062C9.6087 21.2951 9.61753 21.1819 9.63077 21.0642C9.62415 21.0664 9.61753 21.0686 9.6087 21.0708C9.6087 21.0708 7.91304 21.0708 7.57303 21.0708C6.7252 21.0708 5.99219 20.7354 5.65217 20.0667C5.25696 19.3414 5.08696 18.1151 4.06912 17.4465C3.89912 17.3354 4.01393 17.1677 4.35173 17.1677C4.69175 17.2243 5.42697 17.6686 5.87738 18.2828C6.3874 18.8971 6.89521 19.398 7.80044 19.398C9.20465 19.398 9.95975 19.3283 10.4124 19.0887C10.94 18.3133 11.6709 17.7252 12.4348 17.7252V17.7122C9.23115 17.6098 7.18444 16.56 6.23064 14.9373C4.15965 14.9613 2.35581 15.1638 1.32694 15.3315C1.29382 15.1486 1.26512 14.9656 1.24083 14.7805C2.25645 14.6171 3.9786 14.4211 5.95907 14.3841C5.89504 14.2294 5.83984 14.0704 5.79348 13.9092C3.80859 13.8112 2.09749 13.8875 1.16576 13.9637C1.15472 13.7786 1.13927 13.5934 1.13706 13.4061C2.06878 13.3321 3.73573 13.2558 5.66984 13.3451C5.62568 13.0663 5.59698 12.781 5.59698 12.4848C5.59698 11.5373 5.93478 10.5332 6.5574 9.69684C6.2748 8.74938 5.87959 6.74119 6.67001 6.01589C8.19565 6.01589 9.27089 6.74119 9.7787 7.18769C10.7391 6.79564 11.8122 6.57348 13 6.57348C14.1878 6.57348 15.2609 6.79564 16.1661 7.18769C16.6739 6.74119 17.7469 6.01589 19.2748 6.01589C20.1226 6.79564 19.67 8.80383 19.3874 9.69684C20.0078 10.5332 20.3478 11.4807 20.2904 12.4848C20.2904 12.7549 20.2661 13.0141 20.2286 13.2689C22.2069 13.1731 23.918 13.2515 24.8651 13.3255C24.8651 13.515 24.8475 13.698 24.8364 13.8831C23.8937 13.8069 22.1384 13.7263 20.1138 13.833C20.063 14.0203 20.0012 14.2033 19.9283 14.3797C21.9331 14.4059 23.6972 14.5975 24.7614 14.7652C24.7371 14.9504 24.7084 15.1333 24.6753 15.3141C23.5934 15.1442 21.752 14.9438 19.6568 14.9351C18.7162 16.5382 16.707 17.5858 13.5652 17.7078V17.7252C15.0357 17.7252 16.3913 19.899 16.3913 21.4062V24.4163C16.3913 24.8759 16.6717 25.2701 17.0757 25.44C22.2532 23.7498 26 18.9319 26 13.2645C26 6.19231 20.169 0.440002 13 0.440002C5.83101 0.440002 0 6.19231 0 13.2645C0 18.9319 3.74677 23.7498 8.92425 25.44Z" fill="#27EADE"/>
</svg>
