<svg width="28" height="26" viewBox="0 0 28 26" fill="none" xmlns="http://www.w3.org/2000/svg">
<path d="M25.4545 0.440002H2.54545C1.13849 0.440002 0 1.45651 0 2.71273V23.1673C0 24.4235 1.13849 25.44 2.54545 25.44H25.4545C26.8615 25.44 28 24.4235 28 23.1673V2.71273C28 1.45651 26.8615 0.440002 25.4545 0.440002ZM8.84943 20.8945H5.09588V10.108H8.84943V20.8945ZM6.93537 8.56767C5.7223 8.56767 4.74787 7.68876 4.74787 6.6101C4.74787 5.53145 5.72727 4.65698 6.93537 4.65698C8.14347 4.65698 9.12287 5.53588 9.12287 6.6101C9.12287 7.68876 8.14347 8.56767 6.93537 8.56767ZM22.9141 20.8945H19.1605V15.6477C19.1605 14.396 19.1357 12.7891 17.2116 12.7891C15.2578 12.7891 14.9595 14.1518 14.9595 15.559V20.8945H11.206V10.108H14.8054V11.5817H14.8601C15.3572 10.7339 16.5852 9.84164 18.4098 9.84164C22.2131 9.84164 22.9141 12.0744 22.9141 14.9775V20.8945Z" fill="#27EADE"/>
</svg>
